# Blender 4.0.2
# www.blender.org
mtllib XXR SF ES E.mtl
o XXR_Cylinder
v 0.000000 1.290849 0.496480
v 0.297888 1.290849 0.496480
v 0.000000 1.985922 0.000000
v 0.000000 0.992961 1.489441
v 1.290849 0.297888 0.496480
v 0.000000 0.000000 1.489441
v 0.000000 0.000000 0.000000
v 1.290849 0.000000 0.496480
v 0.992961 1.985922 0.000000
v 0.992961 1.985922 0.992961
v 1.985922 0.992961 0.000000
v 1.985922 0.992961 0.992961
v 0.496480 0.992961 1.489441
v 0.992961 0.496480 1.489441
v 1.985922 0.000000 0.000000
v 0.992961 0.000000 1.489441
v 0.645425 1.985922 0.992961
v 0.297888 1.290849 1.340497
v 0.645425 1.985922 0.496480
v 0.000000 1.290849 1.340497
v 0.000000 1.985922 0.496480
v 1.985922 0.645425 0.992961
v 1.290849 0.297888 1.340497
v 1.290849 0.000000 1.340497
v 1.985922 0.645425 0.496480
v 1.985922 0.000000 0.496480
v 0.000000 0.496491 1.489441
v 0.496670 0.000000 1.489441
v 0.496642 0.496486 1.489441
v 0.992961 0.000000 0.000000
v 0.000000 0.992985 0.000000
v 0.992961 0.992961 0.000000
v 1.985922 0.992961 0.496480
v 0.992961 1.985922 0.496480
v 0.645425 1.985922 0.000000
v 0.645425 0.000000 0.000000
v 0.645425 0.992978 0.000000
v 1.985922 0.645425 0.000000
v 0.000000 0.645425 0.000000
v 0.645425 0.645425 0.000000
v 0.992961 0.645425 0.000000
v 0.000000 -1.290849 0.496480
v 0.297888 -1.290849 0.496480
v 0.000000 -1.985922 0.000000
v 0.000000 -0.992961 1.489441
v 1.290849 -0.297888 0.496480
v 0.992961 -1.985922 0.000000
v 0.992961 -1.985922 0.992961
v 1.985922 -0.992961 0.000000
v 1.985922 -0.992961 0.992961
v 0.496480 -0.992961 1.489441
v 0.992961 -0.496480 1.489441
v 0.645425 -1.985922 0.992961
v 0.297888 -1.290849 1.340497
v 0.645425 -1.985922 0.496480
v 0.000000 -1.290849 1.340497
v 0.000000 -1.985922 0.496480
v 1.985922 -0.645425 0.992961
v 1.290849 -0.297888 1.340497
v 1.985922 -0.645425 0.496480
v 0.000000 -0.496491 1.489441
v 0.496642 -0.496486 1.489441
v 0.000000 -0.992985 0.000000
v 0.992961 -0.992961 0.000000
v 1.985922 -0.992961 0.496480
v 0.992961 -1.985922 0.496480
v 0.645425 -1.985922 0.000000
v 0.645425 -0.992978 0.000000
v 1.985922 -0.645425 0.000000
v 0.000000 -0.645425 0.000000
v 0.645425 -0.645425 0.000000
v 0.992961 -0.645425 0.000000
v -0.297888 1.290849 0.496480
v -1.290849 0.297888 0.496480
v -1.290849 0.000000 0.496480
v -0.992961 1.985922 0.000000
v -0.992961 1.985922 0.992961
v -1.985922 0.992961 0.000000
v -1.985922 0.992961 0.992961
v -0.496480 0.992961 1.489441
v -0.992961 0.496480 1.489441
v -1.985922 0.000000 0.000000
v -0.992961 0.000000 1.489441
v -0.645425 1.985922 0.992961
v -0.297888 1.290849 1.340497
v -0.645425 1.985922 0.496480
v -1.985922 0.645425 0.992961
v -1.290849 0.297888 1.340497
v -1.290849 0.000000 1.340497
v -1.985922 0.645425 0.496480
v -1.985922 0.000000 0.496480
v -0.496670 0.000000 1.489441
v -0.496642 0.496486 1.489441
v -0.992961 0.000000 0.000000
v -0.992961 0.992961 0.000000
v -1.985922 0.992961 0.496480
v -0.992961 1.985922 0.496480
v -0.645425 1.985922 0.000000
v -0.645425 0.000000 0.000000
v -0.645425 0.992978 0.000000
v -1.985922 0.645425 0.000000
v -0.645425 0.645425 0.000000
v -0.992961 0.645425 0.000000
v -0.297888 -1.290849 0.496480
v -1.290849 -0.297888 0.496480
v -0.992961 -1.985922 0.000000
v -0.992961 -1.985922 0.992961
v -1.985922 -0.992961 0.000000
v -1.985922 -0.992961 0.992961
v -0.496480 -0.992961 1.489441
v -0.992961 -0.496480 1.489441
v -0.645425 -1.985922 0.992961
v -0.297888 -1.290849 1.340497
v -0.645425 -1.985922 0.496480
v -1.985922 -0.645425 0.992961
v -1.290849 -0.297888 1.340497
v -1.985922 -0.645425 0.496480
v -0.496642 -0.496486 1.489441
v -0.992961 -0.992961 0.000000
v -1.985922 -0.992961 0.496480
v -0.992961 -1.985922 0.496480
v -0.645425 -1.985922 0.000000
v -0.645425 -0.992978 0.000000
v -1.985922 -0.645425 0.000000
v -0.645425 -0.645425 0.000000
v -0.992961 -0.645425 0.000000
vn -0.0000 -0.0000 -1.0000
vn -0.0000 1.0000 -0.0000
vn -0.0000 -0.0000 1.0000
vn 0.4472 -0.8944 -0.0000
vn 0.7071 0.7071 -0.0000
vn 1.0000 -0.0000 -0.0000
vn -0.0000 0.4472 0.8944
vn 0.3015 0.3015 0.9045
vn -0.8944 0.4472 -0.0000
vn 0.4472 -0.0000 0.8944
vn -0.0000 -1.0000 -0.0000
vn 0.4472 0.8944 -0.0000
vn 0.7071 -0.7071 -0.0000
vn -0.0000 -0.4472 0.8944
vn 0.3015 -0.3015 0.9045
vn -0.8944 -0.4472 -0.0000
vn -0.4472 -0.8944 -0.0000
vn -0.7071 0.7071 -0.0000
vn -1.0000 -0.0000 -0.0000
vn -0.3015 0.3015 0.9045
vn 0.8944 0.4472 -0.0000
vn -0.4472 -0.0000 0.8944
vn -0.4472 0.8944 -0.0000
vn -0.7071 -0.7071 -0.0000
vn -0.3015 -0.3015 0.9045
vn 0.8944 -0.4472 -0.0000
vt 0.872377 0.700298
vt 0.981106 0.700298
vt 0.981106 0.738354
vt 0.872375 0.738354
vt 0.305572 0.211167
vt 0.305572 0.265533
vt 0.267516 0.265533
vt 0.267516 0.211167
vt 0.834319 0.738354
vt 0.834319 0.700298
vt 0.230621 0.500071
vt 0.176256 0.500053
vt 0.176255 0.445705
vt 0.656450 0.056958
vt 0.741546 0.056958
vt 0.741546 0.111323
vt 0.656450 0.149379
vt 0.190650 0.792774
vt 0.344419 0.792774
vt 0.344419 0.847139
vt 0.190650 0.847139
vt 0.834319 0.629623
vt 0.763644 0.700298
vt 0.763644 0.629623
vt 0.834319 0.847085
vt 0.763644 0.847085
vt 0.763644 0.738354
vt 0.267516 0.156802
vt 0.305572 0.156802
vt 0.732562 0.156802
vt 0.732562 0.211168
vt 0.694506 0.211168
vt 0.694506 0.156802
vt 0.343628 0.350628
vt 0.321882 0.387098
vt 0.872378 0.629623
vt 0.872375 0.847085
vt 0.623831 0.149379
vt 0.623831 0.056958
vt 0.229093 0.974638
vt 0.305977 0.974638
vt 0.376247 0.156802
vt 0.376247 0.211167
vt 0.732562 0.265533
vt 0.694506 0.265533
vt 0.343628 0.056958
vt 0.343628 0.149379
vt 0.258532 0.111323
vt 0.258532 0.056958
vt 0.121890 0.500050
vt 0.121890 0.445705
vt 0.623831 0.211168
vt 0.656451 0.287279
vt 0.623831 0.287279
vt 0.376247 0.387098
vt 0.376247 0.350628
vt 0.623882 0.387098
vt 0.623867 0.350629
vt 0.656486 0.350615
vt 0.678248 0.387076
vt 0.623831 0.156802
vt 0.176257 0.554436
vt 0.230621 0.554437
vt 0.376247 0.056958
vt 0.376247 0.149379
vt 0.376247 0.287279
vt 0.343628 0.287279
vt 0.121890 0.554436
vt 0.981106 0.629623
vt 0.190650 0.738408
vt 0.344419 0.738408
vt 0.654911 0.700298
vt 0.654912 0.738354
vt 0.546181 0.738354
vt 0.546181 0.700298
vt 0.944328 0.211167
vt 0.982384 0.211167
vt 0.982384 0.265533
vt 0.944328 0.265533
vt 0.692968 0.738354
vt 0.692968 0.700298
vt 0.013159 0.500071
vt 0.067524 0.445705
vt 0.067524 0.500053
vt 0.591212 0.056958
vt 0.591212 0.149379
vt 0.506116 0.111323
vt 0.506116 0.056958
vt 0.510148 0.792773
vt 0.510148 0.847139
vt 0.356379 0.847139
vt 0.356379 0.792773
vt 0.692968 0.629623
vt 0.692968 0.847085
vt 0.944328 0.156802
vt 0.982384 0.156802
vt 0.515100 0.156802
vt 0.553156 0.156802
vt 0.553156 0.211168
vt 0.515100 0.211168
vt 0.928018 0.387098
vt 0.906272 0.350629
vt 0.654910 0.629623
vt 0.654912 0.847085
vt 0.471706 0.974638
vt 0.394821 0.974638
vt 0.873653 0.156802
vt 0.873653 0.211167
vt 0.515100 0.265533
vt 0.553156 0.265533
vt 0.906272 0.056957
vt 0.991368 0.056957
vt 0.991368 0.111323
vt 0.906272 0.149379
vt 0.591212 0.287279
vt 0.873652 0.387098
vt 0.873652 0.350629
vt 0.569516 0.387121
vt 0.591247 0.350642
vt 0.067523 0.554436
vt 0.013159 0.554437
vt 0.873653 0.149379
vt 0.873653 0.056957
vt 0.906272 0.287279
vt 0.873653 0.287279
vt 0.546181 0.629623
vt 0.510148 0.738408
vt 0.356379 0.738408
vt 0.872377 0.558947
vt 0.872375 0.520891
vt 0.981106 0.520891
vt 0.981106 0.558947
vt 0.446923 0.211167
vt 0.484978 0.211167
vt 0.484978 0.265533
vt 0.446923 0.265533
vt 0.834319 0.520891
vt 0.834319 0.558947
vt 0.230621 0.608802
vt 0.176255 0.663168
vt 0.176256 0.608820
vt 0.099716 0.056957
vt 0.099716 0.149379
vt 0.014620 0.111323
vt 0.014620 0.056957
vt 0.178691 0.792774
vt 0.178691 0.847139
vt 0.024922 0.847139
vt 0.024921 0.792774
vt 0.763644 0.558947
vt 0.763644 0.520891
vt 0.763644 0.412160
vt 0.834319 0.412160
vt 0.446923 0.156802
vt 0.484978 0.156802
vt 0.023604 0.156802
vt 0.061660 0.156802
vt 0.061660 0.211167
vt 0.023604 0.211167
vt 0.430613 0.387098
vt 0.408867 0.350628
vt 0.872375 0.412160
vt 0.132335 0.056957
vt 0.132335 0.149379
vt 0.140248 0.974638
vt 0.063364 0.974638
vt 0.023604 0.265533
vt 0.061660 0.265533
vt 0.408867 0.056958
vt 0.493962 0.056958
vt 0.493962 0.111323
vt 0.408867 0.149379
vt 0.121890 0.608823
vt 0.121890 0.663168
vt 0.132335 0.211167
vt 0.132335 0.287279
vt 0.099716 0.287279
vt 0.132335 0.387098
vt 0.077970 0.387098
vt 0.099716 0.350629
vt 0.132335 0.350629
vt 0.132335 0.156802
vt 0.408867 0.287279
vt 0.178691 0.738408
vt 0.024922 0.738408
vt 0.654911 0.558947
vt 0.546181 0.558947
vt 0.546181 0.520891
vt 0.654912 0.520891
vt 0.802977 0.211167
vt 0.802977 0.265533
vt 0.764921 0.265533
vt 0.764921 0.211167
vt 0.692968 0.520891
vt 0.692968 0.558947
vt 0.013159 0.608802
vt 0.067524 0.608820
vt 0.067524 0.663168
vt 0.164954 0.056957
vt 0.250050 0.056957
vt 0.250050 0.111323
vt 0.164954 0.149379
vt 0.264059 0.484549
vt 0.417828 0.484549
vt 0.417829 0.538915
vt 0.264059 0.538915
vt 0.692968 0.412160
vt 0.764921 0.156802
vt 0.802977 0.156802
vt 0.241066 0.156802
vt 0.241066 0.211167
vt 0.203010 0.211167
vt 0.203010 0.156802
vt 0.841033 0.350629
vt 0.819287 0.387098
vt 0.654912 0.412160
vt 0.302502 0.666413
vt 0.379386 0.666413
vt 0.241066 0.265533
vt 0.203010 0.265533
vt 0.841034 0.056957
vt 0.841034 0.149379
vt 0.755938 0.111323
vt 0.755938 0.056957
vt 0.164954 0.287279
vt 0.164955 0.350629
vt 0.186701 0.387098
vt 0.841033 0.287279
vt 0.264059 0.430183
vt 0.417829 0.430183
s 0
usemtl Material.001
f 37/1/1 35/2/1 9/3/1 32/4/1
f 19/5/2 17/6/2 10/7/2 34/8/2
f 41/9/1 40/10/1 37/1/1 32/4/1
f 13/11/3 29/12/3 14/13/3
f 5/14/4 25/15/4 22/16/4 23/17/4
f 33/18/5 34/19/5 10/20/5 12/21/5
f 39/22/1 40/10/1 36/23/1 7/24/1
f 41/9/1 38/25/1 15/26/1 30/27/1
f 19/5/2 34/8/2 9/28/2 35/29/2
f 11/30/6 33/31/6 25/32/6 38/33/6
f 10/7/7 17/6/7 18/34/7 13/35/7
f 37/1/1 40/10/1 39/22/1 31/36/1
f 32/4/1 9/3/1 11/37/1
f 23/17/6 24/38/6 8/39/6 5/14/6
f 14/40/8 12/21/8 10/20/8 13/41/8
f 3/42/2 21/43/2 19/5/2 35/29/2
f 12/44/6 22/45/6 25/32/6 33/31/6
f 2/46/9 18/47/9 17/48/9 19/49/9
f 28/50/3 16/51/3 14/13/3 29/12/3
f 26/52/3 25/32/3 5/53/3 8/54/3
f 4/55/7 13/35/7 18/34/7 20/56/7
f 16/57/10 24/58/10 23/59/10 14/60/10
f 15/61/6 38/33/6 25/32/6 26/52/6
f 27/62/3 29/12/3 13/11/3 4/63/3
f 30/27/1 36/23/1 40/10/1 41/9/1
f 2/46/2 1/64/2 20/65/2 18/47/2
f 21/43/3 1/66/3 2/67/3 19/5/3
f 6/68/3 28/50/3 29/12/3 27/62/3
f 32/4/1 11/37/1 38/25/1 41/9/1
f 3/69/1 35/2/1 37/1/1 31/36/1
f 11/70/5 9/71/5 34/19/5 33/18/5
f 12/44/10 14/60/10 23/59/10 22/45/10
f 68/72/1 64/73/1 47/74/1 67/75/1
f 55/76/11 66/77/11 48/78/11 53/79/11
f 72/80/1 64/73/1 68/72/1 71/81/1
f 51/82/3 52/83/3 62/84/3
f 46/85/12 59/86/12 58/87/12 60/88/12
f 65/89/13 50/90/13 48/91/13 66/92/13
f 70/93/1 7/24/1 36/23/1 71/81/1
f 72/80/1 30/27/1 15/26/1 69/94/1
f 55/76/11 67/95/11 47/96/11 66/77/11
f 49/97/6 69/98/6 60/99/6 65/100/6
f 48/78/14 51/101/14 54/102/14 53/79/14
f 68/72/1 63/103/1 70/93/1 71/81/1
f 64/73/1 49/104/1 47/74/1
f 59/86/6 46/85/6 8/39/6 24/38/6
f 52/105/15 51/106/15 48/91/15 50/90/15
f 44/107/11 67/95/11 55/76/11 57/108/11
f 50/109/6 65/100/6 60/99/6 58/110/6
f 43/111/16 55/112/16 53/113/16 54/114/16
f 28/50/3 62/84/3 52/83/3 16/51/3
f 26/52/3 8/54/3 46/115/3 60/99/3
f 45/116/14 56/117/14 54/102/14 51/101/14
f 16/57/10 52/118/10 59/119/10 24/58/10
f 15/61/6 26/52/6 60/99/6 69/98/6
f 61/120/3 45/121/3 51/82/3 62/84/3
f 30/27/1 72/80/1 71/81/1 36/23/1
f 43/111/11 54/114/11 56/122/11 42/123/11
f 57/108/3 55/76/3 43/124/3 42/125/3
f 6/68/3 61/120/3 62/84/3 28/50/3
f 64/73/1 72/80/1 69/94/1 49/104/1
f 44/126/1 63/103/1 68/72/1 67/75/1
f 49/127/13 65/89/13 66/92/13 47/128/13
f 50/109/10 58/110/10 59/119/10 52/118/10
f 100/129/1 95/130/1 76/131/1 98/132/1
f 86/133/2 97/134/2 77/135/2 84/136/2
f 103/137/1 95/130/1 100/129/1 102/138/1
f 80/139/3 81/140/3 93/141/3
f 74/142/17 88/143/17 87/144/17 90/145/17
f 96/146/18 79/147/18 77/148/18 97/149/18
f 39/22/1 7/24/1 99/150/1 102/138/1
f 103/137/1 94/151/1 82/152/1 101/153/1
f 86/133/2 98/154/2 76/155/2 97/134/2
f 78/156/19 101/157/19 90/158/19 96/159/19
f 77/135/7 80/160/7 85/161/7 84/136/7
f 100/129/1 31/36/1 39/22/1 102/138/1
f 95/130/1 78/162/1 76/131/1
f 88/143/19 74/142/19 75/163/19 89/164/19
f 81/165/20 80/166/20 77/148/20 79/147/20
f 3/42/2 98/154/2 86/133/2 21/43/2
f 79/167/19 96/159/19 90/158/19 87/168/19
f 73/169/21 86/170/21 84/171/21 85/172/21
f 92/173/3 93/141/3 81/140/3 83/174/3
f 91/175/3 75/176/3 74/177/3 90/158/3
f 4/55/7 20/56/7 85/161/7 80/160/7
f 83/178/22 81/179/22 88/180/22 89/181/22
f 82/182/19 91/175/19 90/158/19 101/157/19
f 27/62/3 4/63/3 80/139/3 93/141/3
f 94/151/1 103/137/1 102/138/1 99/150/1
f 73/169/2 85/172/2 20/65/2 1/64/2
f 21/43/3 86/133/3 73/183/3 1/66/3
f 6/68/3 27/62/3 93/141/3 92/173/3
f 95/130/1 103/137/1 101/153/1 78/162/1
f 3/69/1 31/36/1 100/129/1 98/132/1
f 78/184/18 96/146/18 97/149/18 76/185/18
f 79/167/22 87/168/22 88/180/22 81/179/22
f 123/186/1 122/187/1 106/188/1 119/189/1
f 114/190/11 112/191/11 107/192/11 121/193/11
f 126/194/1 125/195/1 123/186/1 119/189/1
f 110/196/3 118/197/3 111/198/3
f 105/199/23 117/200/23 115/201/23 116/202/23
f 120/203/24 121/204/24 107/205/24 109/206/24
f 70/93/1 125/195/1 99/150/1 7/24/1
f 126/194/1 124/207/1 82/152/1 94/151/1
f 114/190/11 121/193/11 106/208/11 122/209/11
f 108/210/19 120/211/19 117/212/19 124/213/19
f 107/192/14 112/191/14 113/214/14 110/215/14
f 123/186/1 125/195/1 70/93/1 63/103/1
f 119/189/1 106/188/1 108/216/1
f 116/202/19 89/164/19 75/163/19 105/199/19
f 111/217/25 109/206/25 107/205/25 110/218/25
f 44/107/11 57/108/11 114/190/11 122/209/11
f 109/219/19 115/220/19 117/212/19 120/211/19
f 104/221/26 113/222/26 112/223/26 114/224/26
f 92/173/3 83/174/3 111/198/3 118/197/3
f 91/175/3 117/212/3 105/225/3 75/176/3
f 45/116/14 110/215/14 113/214/14 56/117/14
f 83/178/22 89/181/22 116/226/22 111/227/22
f 82/182/19 124/213/19 117/212/19 91/175/19
f 61/120/3 118/197/3 110/196/3 45/121/3
f 94/151/1 99/150/1 125/195/1 126/194/1
f 104/221/11 42/123/11 56/122/11 113/222/11
f 57/108/3 42/125/3 104/228/3 114/190/3
f 6/68/3 92/173/3 118/197/3 61/120/3
f 119/189/1 108/216/1 124/207/1 126/194/1
f 44/126/1 122/187/1 123/186/1 63/103/1
f 108/229/24 106/230/24 121/204/24 120/203/24
f 109/219/22 111/227/22 116/226/22 115/220/22
